<svg width="168" height="34" viewBox="0 0 168 34" fill="none" xmlns="http://www.w3.org/2000/svg">
<path d="M30 15C30 23.2843 23.2843 30 15 30C12.4718 30 10.0897 29.3745 8 28.2699C6.71055 27.5883 1.42455e-05 30 1.42455e-05 30C1.42455e-05 30 2.45885 23.3786 1.73009 22C0.625463 19.9103 0 17.5282 0 15C0 6.71573 6.71573 0 15 0C23.2843 0 30 6.71573 30 15Z" fill="white"/>
<rect x="5.50797" y="8.45767" width="6" height="6" rx="2" transform="rotate(-24.1806 5.50797 8.45767)" fill="black"/>
<rect x="11.2426" y="21.2293" width="6" height="6" rx="2" transform="rotate(-24.1806 11.2426 21.2293)" fill="black"/>
<path d="M7.64907 10.7849L7.4214 13.1218C7.07807 16.6459 8.624 20.0889 11.4859 22.1739L13.3837 23.5565" stroke="black" stroke-width="3" stroke-linecap="round"/>
<path d="M15 14.028C15.3746 13.9594 15.7616 14.0176 16.0985 14.1932C16.4353 14.3687 16.7022 14.6513 16.856 14.9952C17.0098 15.3391 17.0415 15.7241 16.9459 16.088C16.8503 16.4518 16.633 16.7732 16.3292 17" stroke="#2D2B2B"/>
<path d="M15 12.056C15.7491 11.9189 16.5232 12.0353 17.1969 12.3863C17.8706 12.7374 18.4044 13.3026 18.712 13.9903C19.0196 14.6781 19.083 15.4482 18.8917 16.1759C18.7005 16.9037 18.2659 17.5464 17.6584 18" stroke="#2D2B2B"/>
<path d="M15 10.084C16.1237 9.87831 17.2848 10.0529 18.2953 10.5795C19.3058 11.1061 20.1067 11.9538 20.5681 12.9855C21.0295 14.0172 21.1244 15.1724 20.8376 16.2639C20.5507 17.3555 19.8989 18.3196 18.9876 19" stroke="#2D2B2B"/>
<path d="M33.7067 27V7.36364H37.8583V23.5771H46.2766V27H33.7067ZM53.1776 7.36364V27H49.026V7.36364H53.1776ZM60.141 7.36364L64.8871 22.2827H65.0692L69.8249 7.36364H74.4272L67.658 27H62.3079L55.5291 7.36364H60.141ZM76.7907 27V7.36364H90.0222V10.7866H80.9423V15.4656H89.3414V18.8885H80.9423V23.5771H90.0605V27H76.7907ZM110.649 14.2383H106.449C106.372 13.695 106.216 13.2124 105.979 12.7905C105.743 12.3622 105.439 11.9979 105.068 11.6974C104.698 11.397 104.269 11.1669 103.783 11.0071C103.304 10.8473 102.783 10.7674 102.221 10.7674C101.204 10.7674 100.319 11.0199 99.5647 11.5249C98.8105 12.0234 98.2256 12.7521 97.8101 13.7109C97.3946 14.6634 97.1869 15.8203 97.1869 17.1818C97.1869 18.5817 97.3946 19.7578 97.8101 20.7102C98.232 21.6626 98.82 22.3817 99.5743 22.8675C100.329 23.3533 101.201 23.5962 102.192 23.5962C102.748 23.5962 103.263 23.5227 103.736 23.3757C104.215 23.2287 104.64 23.0146 105.011 22.7333C105.381 22.4457 105.688 22.0973 105.931 21.6882C106.18 21.2791 106.353 20.8125 106.449 20.2884L110.649 20.3075C110.54 21.2088 110.268 22.0781 109.834 22.9155C109.405 23.7464 108.827 24.4911 108.098 25.1495C107.376 25.8015 106.513 26.3192 105.509 26.7028C104.512 27.0799 103.384 27.2685 102.125 27.2685C100.373 27.2685 98.8073 26.8722 97.4266 26.0795C96.0523 25.2869 94.9656 24.1396 94.1666 22.6374C93.374 21.1353 92.9777 19.3168 92.9777 17.1818C92.9777 15.0405 93.3804 13.2188 94.1858 11.7166C94.9912 10.2145 96.0843 9.07031 97.4649 8.28409C98.8456 7.49148 100.399 7.09517 102.125 7.09517C103.263 7.09517 104.317 7.25497 105.289 7.57457C106.267 7.89418 107.133 8.36079 107.887 8.97443C108.641 9.58168 109.255 10.3263 109.728 11.2085C110.207 12.0906 110.514 13.1005 110.649 14.2383ZM113.626 27V7.36364H117.777V15.4656H126.205V7.36364H130.347V27H126.205V18.8885H117.777V27H113.626ZM137.155 27H132.706L139.485 7.36364H144.835L151.604 27H147.155L142.236 11.8509H142.083L137.155 27ZM136.877 19.2816H147.385V22.5224H136.877V19.2816ZM150.82 10.7866V7.36364H166.947V10.7866H160.936V27H156.832V10.7866H150.82Z" fill="white"/>
</svg>
